<svg width="32" height="32" viewBox="0 0 32 32" xmlns="http://www.w3.org/2000/svg">
  <!-- Traditional jebena clay pot -->
  <!-- Base -->
  <ellipse cx="16" cy="26" rx="6" ry="2" fill="#3E2723"/>
  <!-- Body -->
  <path d="M10 26 Q10 18 12 14 Q14 12 16 12 Q18 12 20 14 Q22 18 22 26" fill="#8A9A7B"/>
  <!-- Neck -->
  <rect x="15" y="8" width="2" height="4" fill="#8A9A7B"/>
  <!-- Spout -->
  <path d="M17 10 Q20 10 22 12" fill="none" stroke="#3E2723" stroke-width="1.5" stroke-linecap="round"/>
  <!-- Handle -->
  <path d="M12 18 Q8 18 8 22 Q8 24 12 24" fill="none" stroke="#3E2723" stroke-width="1.5"/>
  <!-- Traditional pattern -->
  <circle cx="16" cy="20" r="1" fill="#C9A96E" opacity="0.7"/>
  <circle cx="14" cy="18" r="0.5" fill="#C9A96E" opacity="0.7"/>
  <circle cx="18" cy="18" r="0.5" fill="#C9A96E" opacity="0.7"/>
  <!-- Steam -->
  <path d="M15 6 Q15 4 15 4 M17 6 Q17 4 17 4" stroke="#C9A96E" stroke-width="1" fill="none" stroke-linecap="round"/>
</svg>