<svg width="32" height="32" viewBox="0 0 32 32" xmlns="http://www.w3.org/2000/svg">
  <!-- Left laurel branch -->
  <g fill="#8A9A7B" opacity="0.8">
    <path d="M6 16 Q8 12 12 14 Q10 15 8 16 Q10 17 12 18 Q8 20 6 16"/>
    <path d="M8 18 Q10 22 14 20 Q12 21 10 22 Q12 23 14 24 Q10 26 8 22"/>
    <path d="M8 14 Q10 10 14 12 Q12 11 10 10 Q12 9 14 8 Q10 6 8 10"/>
  </g>
  
  <!-- Right laurel branch -->
  <g fill="#8A9A7B" opacity="0.8">
    <path d="M26 16 Q24 12 20 14 Q22 15 24 16 Q22 17 20 18 Q24 20 26 16"/>
    <path d="M24 18 Q22 22 18 20 Q20 21 22 22 Q20 23 18 24 Q22 26 24 22"/>
    <path d="M24 14 Q22 10 18 12 Q20 11 22 10 Q20 9 18 8 Q22 6 24 10"/>
  </g>
</svg>